<?xml version="1.0" encoding="UTF-8" standalone="no"?>
<!DOCTYPE svg PUBLIC "-//W3C//DTD SVG 1.1//EN"
 "http://www.w3.org/Graphics/SVG/1.1/DTD/svg11.dtd">
<!-- Generated by graphviz version 2.40.1 (20161225.0304)
 -->
<!-- Title: G Pages: 1 -->
<svg width="752pt" height="528pt"
 viewBox="0.00 0.00 752.00 528.00" xmlns="http://www.w3.org/2000/svg" xmlns:xlink="http://www.w3.org/1999/xlink">
<g id="graph0" class="graph" transform="scale(1 1) rotate(0) translate(4 524)">
<title>G</title>
<polygon fill="#ffffff" stroke="transparent" points="-4,4 -4,-524 748,-524 748,4 -4,4"/>
<g id="clust1" class="cluster">
<title>cluster_Global</title>
<path fill="none" stroke="#c0c0c0" d="M20,-44C20,-44 724,-44 724,-44 730,-44 736,-50 736,-56 736,-56 736,-500 736,-500 736,-506 730,-512 724,-512 724,-512 20,-512 20,-512 14,-512 8,-506 8,-500 8,-500 8,-56 8,-56 8,-50 14,-44 20,-44"/>
<text text-anchor="middle" x="372" y="-499.2" font-family="Times,serif" font-size="11.00" fill="#c0c0c0">Global</text>
</g>
<g id="clust2" class="cluster">
<title>cluster_\Fgsl</title>
<path fill="none" stroke="#c0c0c0" d="M28,-52C28,-52 716,-52 716,-52 722,-52 728,-58 728,-64 728,-64 728,-472 728,-472 728,-478 722,-484 716,-484 716,-484 28,-484 28,-484 22,-484 16,-478 16,-472 16,-472 16,-64 16,-64 16,-58 22,-52 28,-52"/>
<text text-anchor="middle" x="372" y="-471.2" font-family="Times,serif" font-size="11.00" fill="#c0c0c0">Fgsl</text>
</g>
<g id="clust3" class="cluster">
<title>cluster_\Fgsl\Kubectl</title>
<path fill="none" stroke="#c0c0c0" d="M36,-60C36,-60 708,-60 708,-60 714,-60 720,-66 720,-72 720,-72 720,-444 720,-444 720,-450 714,-456 708,-456 708,-456 36,-456 36,-456 30,-456 24,-450 24,-444 24,-444 24,-72 24,-72 24,-66 30,-60 36,-60"/>
<text text-anchor="middle" x="372" y="-443.2" font-family="Times,serif" font-size="11.00" fill="#c0c0c0">Kubectl</text>
</g>
<!-- \\Fgsl\\Kubectl\\KubernetesPods -->
<g id="node1" class="node">
<title>\\Fgsl\\Kubectl\\KubernetesPods</title>
<polygon fill="none" stroke="#000000" points="681.5,-320 570.5,-320 570.5,-284 681.5,-284 681.5,-320"/>
<text text-anchor="middle" x="626" y="-299.2" font-family="Courier,monospace" font-size="11.00" fill="#000000">KubernetesPods</text>
</g>
<!-- \\Fgsl\\Kubectl\\AbstractKubernetesObject -->
<g id="node6" class="node">
<title>\\Fgsl\\Kubectl\\AbstractKubernetesObject</title>
<polygon fill="none" stroke="#000000" points="468,-320 289,-320 289,-284 468,-284 468,-320"/>
<text text-anchor="start" x="344.5" y="-305.2" font-family="Courier,monospace" font-size="11.00" fill="#000000">«abstract»</text>
<text text-anchor="start" x="297" y="-293.2" font-family="Courier,monospace" font-size="11.00" fill="#000000">AbstractKubernetesObject</text>
</g>
<!-- \\Fgsl\\Kubectl\\KubernetesPods&#45;&gt;\\Fgsl\\Kubectl\\AbstractKubernetesObject -->
<g id="edge1" class="edge">
<title>\\Fgsl\\Kubectl\\KubernetesPods&#45;&gt;\\Fgsl\\Kubectl\\AbstractKubernetesObject</title>
<path fill="none" stroke="#000000" d="M570.4562,-302C543.3208,-302 509.8225,-302 478.4459,-302"/>
<polygon fill="none" stroke="#000000" points="478.344,-298.5001 468.344,-302 478.3439,-305.5001 478.344,-298.5001"/>
</g>
<!-- \\Fgsl\\Kubectl\\KubectlException -->
<g id="node2" class="node">
<title>\\Fgsl\\Kubectl\\KubectlException</title>
<polygon fill="none" stroke="#000000" points="688.5,-104 563.5,-104 563.5,-68 688.5,-68 688.5,-104"/>
<text text-anchor="middle" x="626" y="-83.2" font-family="Courier,monospace" font-size="11.00" fill="#000000">KubectlException</text>
</g>
<!-- \\Exception -->
<g id="node10" class="node">
<title>\\Exception</title>
<ellipse fill="none" stroke="#000000" cx="378.5" cy="-18" rx="40.8928" ry="18"/>
<text text-anchor="middle" x="378.5" y="-14.3" font-family="Times,serif" font-size="14.00" fill="#c0c0c0">xception</text>
</g>
<!-- \\Fgsl\\Kubectl\\KubectlException&#45;&gt;\\Exception -->
<g id="edge2" class="edge">
<title>\\Fgsl\\Kubectl\\KubectlException&#45;&gt;\\Exception</title>
<path fill="none" stroke="#000000" d="M563.2253,-68.7528C519.4865,-56.7357 462.1989,-40.9961 423.0901,-30.251"/>
<polygon fill="none" stroke="#000000" points="423.8811,-26.8387 413.3111,-27.5643 422.0265,-33.5886 423.8811,-26.8387"/>
</g>
<!-- \\Fgsl\\Kubectl\\KubernetesVolumes -->
<g id="node3" class="node">
<title>\\Fgsl\\Kubectl\\KubernetesVolumes</title>
<polygon fill="none" stroke="#000000" points="691.5,-212 560.5,-212 560.5,-176 691.5,-176 691.5,-212"/>
<text text-anchor="middle" x="626" y="-191.2" font-family="Courier,monospace" font-size="11.00" fill="#000000">KubernetesVolumes</text>
</g>
<!-- \\Fgsl\\Kubectl\\KubernetesVolumes&#45;&gt;\\Fgsl\\Kubectl\\AbstractKubernetesObject -->
<g id="edge3" class="edge">
<title>\\Fgsl\\Kubectl\\KubernetesVolumes&#45;&gt;\\Fgsl\\Kubectl\\AbstractKubernetesObject</title>
<path fill="none" stroke="#000000" d="M564.0353,-212.138C555.8793,-214.9082 547.6883,-217.8886 540,-221 497.9223,-238.0286 451.8088,-261.6889 419.6685,-279.0417"/>
<polygon fill="none" stroke="#000000" points="417.6909,-276.1329 410.5763,-283.9836 421.0338,-282.2831 417.6909,-276.1329"/>
</g>
<!-- \\Fgsl\\Kubectl\\KubectlProxy -->
<g id="node4" class="node">
<title>\\Fgsl\\Kubectl\\KubectlProxy</title>
<polygon fill="none" stroke="#000000" points="675,-266 577,-266 577,-230 675,-230 675,-266"/>
<text text-anchor="middle" x="626" y="-245.2" font-family="Courier,monospace" font-size="11.00" fill="#000000">KubectlProxy</text>
</g>
<!-- \\Fgsl\\Kubectl\\KubernetesNamespace -->
<g id="node5" class="node">
<title>\\Fgsl\\Kubectl\\KubernetesNamespace</title>
<polygon fill="none" stroke="#000000" points="698.5,-158 553.5,-158 553.5,-122 698.5,-122 698.5,-158"/>
<text text-anchor="middle" x="626" y="-137.2" font-family="Courier,monospace" font-size="11.00" fill="#000000">KubernetesNamespace</text>
</g>
<!-- \\Fgsl\\Kubectl\\KubernetesNamespace&#45;&gt;\\Fgsl\\Kubectl\\AbstractKubernetesObject -->
<g id="edge4" class="edge">
<title>\\Fgsl\\Kubectl\\KubernetesNamespace&#45;&gt;\\Fgsl\\Kubectl\\AbstractKubernetesObject</title>
<path fill="none" stroke="#000000" d="M559.1787,-158.0868C552.5474,-160.7326 546.0419,-163.6975 540,-167 485.6077,-196.7311 432.3916,-246.3325 402.6731,-276.4192"/>
<polygon fill="none" stroke="#000000" points="400.12,-274.024 395.6374,-283.6239 405.1282,-278.9147 400.12,-274.024"/>
</g>
<!-- \\Fgsl\\Kubectl\\KubernetesObjectInterface -->
<g id="node9" class="node">
<title>\\Fgsl\\Kubectl\\KubernetesObjectInterface</title>
<polygon fill="none" stroke="#000000" points="217,-320 32,-320 32,-284 217,-284 217,-320"/>
<text text-anchor="middle" x="124.5" y="-299.2" font-family="Courier,monospace" font-size="11.00" fill="#000000">KubernetesObjectInterface</text>
</g>
<!-- \\Fgsl\\Kubectl\\AbstractKubernetesObject&#45;&gt;\\Fgsl\\Kubectl\\KubernetesObjectInterface -->
<g id="edge5" class="edge">
<title>\\Fgsl\\Kubectl\\AbstractKubernetesObject&#45;&gt;\\Fgsl\\Kubectl\\KubernetesObjectInterface</title>
<path fill="none" stroke="#000000" stroke-dasharray="1,5" d="M288.9491,-302C269.0329,-302 247.7673,-302 227.3646,-302"/>
<polygon fill="none" stroke="#000000" points="227.108,-298.5001 217.108,-302 227.1079,-305.5001 227.108,-298.5001"/>
</g>
<!-- \\Fgsl\\Kubectl\\KubernetesReplicaSets -->
<g id="node7" class="node">
<title>\\Fgsl\\Kubectl\\KubernetesReplicaSets</title>
<polygon fill="none" stroke="#000000" points="705,-428 547,-428 547,-392 705,-392 705,-428"/>
<text text-anchor="middle" x="626" y="-407.2" font-family="Courier,monospace" font-size="11.00" fill="#000000">KubernetesReplicaSets</text>
</g>
<!-- \\Fgsl\\Kubectl\\KubernetesReplicaSets&#45;&gt;\\Fgsl\\Kubectl\\AbstractKubernetesObject -->
<g id="edge6" class="edge">
<title>\\Fgsl\\Kubectl\\KubernetesReplicaSets&#45;&gt;\\Fgsl\\Kubectl\\AbstractKubernetesObject</title>
<path fill="none" stroke="#000000" d="M564.0353,-391.862C555.8793,-389.0918 547.6883,-386.1114 540,-383 497.9223,-365.9714 451.8088,-342.3111 419.6685,-324.9583"/>
<polygon fill="none" stroke="#000000" points="421.0338,-321.7169 410.5763,-320.0164 417.6909,-327.8671 421.0338,-321.7169"/>
</g>
<!-- \\Fgsl\\Kubectl\\KubernetesResourceQuota -->
<g id="node8" class="node">
<title>\\Fgsl\\Kubectl\\KubernetesResourceQuota</title>
<polygon fill="none" stroke="#000000" points="712,-374 540,-374 540,-338 712,-338 712,-374"/>
<text text-anchor="middle" x="626" y="-353.2" font-family="Courier,monospace" font-size="11.00" fill="#000000">KubernetesResourceQuota</text>
</g>
<!-- \\Fgsl\\Kubectl\\KubernetesResourceQuota&#45;&gt;\\Fgsl\\Kubectl\\AbstractKubernetesObject -->
<g id="edge7" class="edge">
<title>\\Fgsl\\Kubectl\\KubernetesResourceQuota&#45;&gt;\\Fgsl\\Kubectl\\AbstractKubernetesObject</title>
<path fill="none" stroke="#000000" d="M543.242,-337.9437C520.1252,-332.9001 494.857,-327.387 471.2061,-322.2268"/>
<polygon fill="none" stroke="#000000" points="471.6963,-318.7515 461.18,-320.0393 470.2041,-325.5906 471.6963,-318.7515"/>
</g>
</g>
</svg>
